<svg width="243.80498046875px" height="122.021240234375px" xmlns="http://www.w3.org/2000/svg" viewBox="128.097509765625 13.9893798828125 243.80498046875 122.021240234375" style="background: rgba(0, 0, 0, 0);" preserveAspectRatio="xMidYMid"><defs><linearGradient id="editing-outline-gradient" x1="-0.41354545764260087" x2="1.4135454576426008" y1="0.09326335692419985" y2="0.9067366430758002"><stop offset="0" stop-color="#ee4208"></stop><stop offset="1" stop-color="#4139ff"></stop></linearGradient><filter id="editing-outline" x="-100%" y="-100%" width="300%" height="300%"><feMorphology in="SourceGraphic" operator="dilate" radius="1" result="outline"></feMorphology><feComposite operator="out" in="outline" in2="SourceAlpha"></feComposite></filter></defs><g filter="url(#editing-outline)"><g transform="translate(168.6550009250641, 97.00718688964844)"><path d="M14.21 0L0.51 0L8.32-42.05L8.32-42.05Q14.66-42.75 23.90-42.75L23.90-42.75L23.90-42.75Q33.15-42.75 37.44-40.06L37.44-40.06L37.44-40.06Q41.73-37.38 41.73-31.97L41.73-31.97L41.73-31.97Q41.73-26.56 38.94-23.17L38.94-23.17L38.94-23.17Q36.16-19.78 31.36-18.69L31.36-18.69L31.36-18.69Q32.45-13.38 34.94-9.09L34.94-9.09L34.94-9.09Q37.25-5.06 39.94-3.78L39.94-3.78L39.94-3.78Q38.98-1.09 37.02 0.10L37.02 0.10L37.02 0.10Q35.07 1.28 32.29 1.28L32.29 1.28L32.29 1.28Q29.50 1.28 27.33-0.35L27.33-0.35L27.33-0.35Q25.15-1.98 23.42-4.99L23.42-4.99L23.42-4.99Q19.78-11.52 19.39-21.82L19.39-21.82L19.84-21.82L19.84-21.82Q24.58-21.95 26.94-24.42L26.94-24.42L26.94-24.42Q29.31-26.88 29.31-32.06L29.31-32.06L29.31-32.06Q29.31-38.53 23.87-38.78L23.87-38.78L22.46-38.78L22.46-38.78Q21.89-38.78 21.57-38.72L21.57-38.72L14.21 0ZM65.22-2.69L65.22-2.69L65.22-2.69Q62.14 1.28 54.53 1.28L54.53 1.28L54.53 1.28Q50.56 1.28 47.68-1.12L47.68-1.12L47.68-1.12Q44.80-3.52 44.80-6.98L44.80-6.98L44.80-6.98Q44.80-8.90 44.99-9.86L44.99-9.86L49.28-32.64L62.27-33.92L57.60-9.22L57.60-9.22Q57.34-7.81 57.34-6.98L57.34-6.98L57.34-6.98Q57.34-3.26 59.58-3.26L59.58-3.26L59.58-3.26Q62.08-3.26 63.87-6.66L63.87-6.66L63.87-6.66Q64.45-7.74 64.70-9.15L64.70-9.15L69.25-32.64L81.86-33.92L77.12-8.96L77.12-8.96Q76.93-8 76.93-6.98L76.93-6.98L76.93-6.98Q76.93-5.95 77.50-4.83L77.50-4.83L77.50-4.83Q78.08-3.71 79.94-3.46L79.94-3.46L79.94-3.46Q79.55-1.92 78.21-0.90L78.21-0.90L78.21-0.90Q75.39 1.28 72.35 1.28L72.35 1.28L72.35 1.28Q69.31 1.28 67.52 0.19L67.52 0.19L67.52 0.19Q65.73-0.90 65.22-2.69ZM112.38 1.28L112.38 1.28L112.38 1.28Q104.64 1.28 104.64-4.74L104.64-4.74L104.64-4.74Q104.70-6.40 105.22-9.22L105.22-9.22L106.37-15.10L106.37-15.10Q108.10-23.42 108.10-25.28L108.10-25.28L108.10-25.28Q108.10-28.99 105.92-28.99L105.92-28.99L105.92-28.99Q102.27-28.99 100.35-19.46L100.35-19.46L96.58 0L83.71 1.28L90.37-32.70L100.86-33.92L99.84-27.65L99.84-27.65Q102.85-33.92 112.06-33.92L112.06-33.92L112.06-33.92Q116.54-33.92 118.43-32.03L118.43-32.03L118.43-32.03Q120.32-30.14 120.32-25.92L120.32-25.92L120.32-25.92Q120.32-21.95 118.27-12.67L118.27-12.67L118.27-12.67Q117.31-8.51 117.31-6.94L117.31-6.94L117.31-6.94Q117.31-5.38 118.18-4.48L118.18-4.48L118.18-4.48Q119.04-3.58 120.32-3.46L120.32-3.46L120.32-3.46Q119.68-1.28 117.47 0L117.47 0L117.47 0Q115.26 1.28 112.38 1.28ZM128.22-1.92L128.22-1.92L128.22-1.92Q126.72-3.58 126.05-6.21L126.05-6.21L126.05-6.21Q125.38-8.83 125.38-13.12L125.38-13.12L125.38-13.12Q125.38-17.41 126.85-21.31L126.85-21.31L126.85-21.31Q128.32-25.22 131.01-28.03L131.01-28.03L131.01-28.03Q136.51-33.92 145.60-33.92L145.60-33.92L145.60-33.92Q148.86-33.92 151.23-32.83L151.23-32.83L162.18-33.92L157.44-8.96L157.44-8.96Q157.25-8.19 157.25-6.78L157.25-6.78L157.25-6.78Q157.25-5.38 158.11-4.48L158.11-4.48L158.11-4.48Q158.98-3.58 160.26-3.46L160.26-3.46L160.26-3.46Q159.62-1.28 157.28 0L157.28 0L157.28 0Q154.94 1.28 152.32 1.28L152.32 1.28L152.32 1.28Q149.70 1.28 147.94 0.29L147.94 0.29L147.94 0.29Q146.18-0.70 145.66-2.37L145.66-2.37L145.66-2.37Q144.64-0.77 142.46 0.26L142.46 0.26L142.46 0.26Q140.29 1.28 137.38 1.28L137.38 1.28L137.38 1.28Q134.46 1.28 132.10 0.51L132.10 0.51L132.10 0.51Q129.73-0.26 128.22-1.92ZM141.73-27.90L141.73-27.90L141.73-27.90Q140.99-26.75 140.35-24.80L140.35-24.80L140.35-24.80Q139.71-22.85 138.66-17.63L138.66-17.63L138.66-17.63Q137.60-12.42 137.60-8.70L137.60-8.70L137.60-8.70Q137.60-4.99 138.18-3.90L138.18-3.90L138.18-3.90Q138.75-2.82 139.78-2.82L139.78-2.82L139.78-2.82Q141.82-2.82 143.33-4.77L143.33-4.77L143.33-4.77Q144.83-6.72 145.41-10.18L145.41-10.18L148.80-28.93L148.80-28.93Q147.46-30.08 145.89-30.08L145.89-30.08L145.89-30.08Q144.32-30.08 143.39-29.57L143.39-29.57L143.39-29.57Q142.46-29.06 141.73-27.90Z" fill="url(#editing-outline-gradient)"></path></g></g><style>text {
  font-size: 64px;
  font-family: Arial Black;
  dominant-baseline: central;
  text-anchor: middle;
}</style></svg>